<svg xmlns="http://www.w3.org/2000/svg" style="display: none;">
  
    <symbol id="icon-linkedin-square" viewBox="0 0 512 512">
      <path d="m104 404l66 0 0-198-66 0z m71-259c-1-10-4-19-11-25-6-6-15-10-26-10-11 0-20 4-27 10-7 6-11 15-11 25 0 9 4 17 10 24 7 7 16 10 27 10l0 0c11 0 20-3 27-10 7-7 11-15 11-24z m167 259l66 0 0-114c0-29-7-51-21-66-14-15-32-23-55-23-26 0-46 11-60 34l1 0 0-29-66 0c0 12 0 78 0 198l66 0 0-111c0-7 0-12 2-16 2-7 7-12 12-17 6-5 13-7 22-7 22 0 33 15 33 45z m133-285l0 274c0 23-8 42-24 58-16 16-35 24-58 24l-274 0c-23 0-42-8-58-24-16-16-24-35-24-58l0-274c0-23 8-42 24-58 16-16 35-24 58-24l274 0c23 0 42 8 58 24 16 16 24 35 24 58z"/>
    </symbol>
  
    <symbol id="icon-facebook-square" viewBox="0 0 512 512">
      <path d="m393 37c23 0 42 8 58 24 16 16 24 35 24 58l0 274c0 23-8 42-24 58-16 16-35 24-58 24l-54 0 0-170 57 0 9-66-66 0 0-42c0-11 3-19 7-24 5-5 13-8 26-8l35 0 0-60c-12-1-29-2-51-2-26 0-46 7-62 23-15 15-23 36-23 64l0 49-57 0 0 66 57 0 0 170-152 0c-23 0-42-8-58-24-16-16-24-35-24-58l0-274c0-23 8-42 24-58 16-16 35-24 58-24z"/>
    </symbol>
  
    <symbol id="icon-instagram" viewBox="0 0 512 512">
      <path d="m329 256c0-20-7-37-21-52-15-14-32-21-52-21-20 0-37 7-52 21-14 15-21 32-21 52 0 20 7 37 21 52 15 14 32 21 52 21 20 0 37-7 52-21 14-15 21-32 21-52z m40 0c0 31-11 58-33 80-22 22-49 33-80 33-31 0-58-11-80-33-22-22-33-49-33-80 0-31 11-58 33-80 22-22 49-33 80-33 31 0 58 11 80 33 22 22 33 49 33 80z m30-117c0 7-2 13-7 18-5 6-12 8-19 8-7 0-13-2-18-8-6-5-8-11-8-18 0-7 2-14 8-19 5-5 11-7 18-7 7 0 14 2 19 7 5 5 7 12 7 19z m-143-63c-1 0-9 0-22 0-13 0-23 0-30 0-7 0-16 0-28 1-11 0-21 1-29 3-8 1-15 3-20 5-10 4-18 9-26 16-7 8-12 16-16 26-2 5-4 12-5 20-2 8-3 18-3 29-1 12-1 21-1 28 0 7 0 17 0 30 0 13 0 21 0 22 0 1 0 9 0 22 0 13 0 23 0 30 0 7 0 16 1 28 0 11 1 21 3 29 1 8 3 15 5 20 4 10 9 18 16 26 8 7 16 12 26 16 5 2 12 4 20 5 8 2 18 3 29 3 12 1 21 1 28 1 7 0 17 0 30 0 13 0 21 0 22 0 1 0 9 0 22 0 13 0 23 0 30 0 7 0 16 0 28-1 11 0 21-1 29-3 8-1 15-3 20-5 10-4 18-9 26-16 7-8 12-16 16-26 2-5 4-12 5-20 2-8 3-18 3-29 1-12 1-21 1-28 0-7 0-17 0-30 0-13 0-21 0-22 0-1 0-9 0-22 0-13 0-23 0-30 0-7 0-16-1-28 0-11-1-21-3-29-1-8-3-15-5-20-4-10-9-18-16-26-8-7-16-12-26-16-5-2-12-4-20-5-8-2-18-3-29-3-12-1-21-1-28-1-7 0-17 0-30 0-13 0-21 0-22 0z m219 180c0 44 0 74-1 91-2 39-14 70-35 92-22 21-53 33-92 35-17 1-47 1-91 1-44 0-74 0-91-1-39-2-70-14-92-35-21-22-33-53-35-92-1-17-1-47-1-91 0-44 0-74 1-91 2-39 14-70 35-92 22-21 53-33 92-35 17-1 47-1 91-1 44 0 74 0 91 1 39 2 70 14 92 35 21 22 33 53 35 92 1 17 1 47 1 91z"/>
    </symbol>
  
    <symbol id="icon-lari" viewBox="0 0 512 512">
      <path d="m101 460l0-42 44 0c-2-2-4-4-6-6-37-33-55-78-55-137 0-59 16-106 47-141 19-21 42-36 69-44l0-38 37 0 0 31c6-1 13-1 19-1 8 0 15 1 22 1l0-31 37 0 0 39c25 8 47 23 66 43 31 35 47 82 47 141l-53 0c0-47-11-84-32-111-9-11-18-19-28-25l0 139-37 0 0-153c-7-1-14-2-22-2-6 0-13 1-19 2l0 153-37 0 0-141c-11 7-22 16-31 27-21 27-32 64-32 111 0 47 13 82 37 107 21 21 45 33 71 36l141 0 0 42z"/>
    </symbol>
  
    <symbol id="icon-greater" viewBox="0 0 512 512">
      <path d="m361 231l-159-159c-14-14-36-14-50 0-14 14-14 37 0 51l132 133-133 133c-14 14-14 37 0 51 7 7 17 10 26 10 9 0 18-3 25-10l158-159c15-14 15-37 1-50z"/>
    </symbol>
  
</svg>
